<svg width="64" height="65" viewBox="0 0 64 65" fill="none" xmlns="http://www.w3.org/2000/svg">
<path fill-rule="evenodd" clip-rule="evenodd" d="M31.9997 5.83334C17.2721 5.83334 5.33307 17.7724 5.33307 32.5C5.3236 36.9909 6.47163 41.4086 8.6664 45.3267C9.52062 46.9347 10.5587 48.4381 11.7597 49.8067C16.8259 55.7124 24.2187 59.1109 31.9997 59.1109C39.7807 59.1109 47.1736 55.7124 52.2397 49.8067C53.4408 48.4381 54.4788 46.9347 55.3331 45.3267C57.5278 41.4086 58.6759 36.9909 58.6664 32.5C58.6664 17.7724 46.7273 5.83334 31.9997 5.83334ZM39.1197 52.6067C30.7018 55.591 21.3159 53.0157 15.5997 46.1533C25.2403 38.6343 38.7591 38.6343 48.3997 46.1533C45.9429 49.0997 42.737 51.3291 39.1197 52.6067ZM53.1464 35.1667H50.9064C49.4336 35.1667 48.2397 33.9728 48.2397 32.5C48.2397 31.0272 49.4336 29.8333 50.9064 29.8333H53.1731C52.7118 26.0495 51.2275 22.4631 48.8797 19.46L48.0797 20.26C47.5809 20.769 46.8991 21.057 46.1864 21.06C45.103 21.0663 44.1235 20.4165 43.7081 19.416C43.2926 18.4154 43.5238 17.2629 44.2931 16.5L45.0131 15.7267C42.0236 13.3593 38.4475 11.8478 34.6664 11.3533V13.8333C34.6664 15.3061 33.4725 16.5 31.9997 16.5C30.527 16.5 29.3331 15.3061 29.3331 13.8333V11.3267C25.5735 11.783 22.0075 13.2481 19.0131 15.5667L19.9464 16.5C20.9994 17.5457 21.0054 19.247 19.9597 20.3C18.9141 21.353 17.2128 21.359 16.1597 20.3133L15.2264 19.38C12.8341 22.3981 11.3125 26.0129 10.8264 29.8333H13.3331C14.8058 29.8333 15.9997 31.0272 15.9997 32.5C15.9997 33.9728 14.8058 35.1667 13.3331 35.1667H10.8531C11.1177 37.3917 11.7579 39.5557 12.7464 41.5667C17.8645 37.6897 24.039 35.458 30.4531 35.1667L37.7064 23.1933C38.1256 22.2658 39.0363 21.6578 40.0537 21.6262C41.0711 21.5946 42.0177 22.145 42.4937 23.0448C42.9696 23.9446 42.8918 25.0368 42.2931 25.86L36.5064 35.4867C41.8613 36.2519 46.9349 38.362 51.2531 41.62C52.2473 39.5925 52.8876 37.41 53.1464 35.1667Z" fill="white"/>
</svg>
