<svg width="23" height="23" viewBox="0 0 23 23" fill="none" xmlns="http://www.w3.org/2000/svg">
<path d="M21.0196 8.67616C20.9607 8.50271 20.8523 8.35031 20.7078 8.23776C20.5633 8.12522 20.389 8.05746 20.2064 8.04284L14.8653 7.61844L12.5541 2.50226C12.4805 2.33748 12.3608 2.19752 12.2094 2.09928C12.058 2.00104 11.8814 1.94871 11.7009 1.94861C11.5205 1.94851 11.3438 2.00064 11.1923 2.09872C11.0408 2.1968 10.9209 2.33662 10.8472 2.50132L8.53593 7.61844L3.1949 8.04284C3.01545 8.05706 2.8439 8.12267 2.70076 8.23183C2.55763 8.341 2.44897 8.48909 2.38779 8.65838C2.32662 8.82768 2.31551 9.01102 2.3558 9.18647C2.39609 9.36191 2.48608 9.52204 2.61499 9.64768L6.56197 13.4954L5.16605 19.54C5.12367 19.7229 5.13725 19.9144 5.20504 20.0896C5.27284 20.2647 5.39171 20.4155 5.54623 20.5222C5.70075 20.629 5.8838 20.6868 6.0716 20.6882C6.25941 20.6897 6.44331 20.6346 6.59945 20.5302L11.7006 17.1294L16.8018 20.5302C16.9614 20.6362 17.1496 20.6907 17.3411 20.6865C17.5326 20.6823 17.7182 20.6196 17.873 20.5067C18.0278 20.3939 18.1443 20.2363 18.2069 20.0553C18.2695 19.8743 18.2751 19.6784 18.223 19.4941L16.5095 13.4982L20.7591 9.67391C21.0374 9.42283 21.1395 9.03123 21.0196 8.67616Z" fill="#FF013E"/>
</svg>
