<svg width="122" height="123" viewBox="0 0 122 123" fill="none" xmlns="http://www.w3.org/2000/svg">
<path d="M110.291 83.6518L99.5287 77.4836L104.318 76.1964C105.021 76.033 105.684 75.7302 106.268 75.3061C106.851 74.8819 107.343 74.345 107.714 73.7273C108.085 73.1097 108.327 72.4239 108.427 71.7109C108.526 70.998 108.481 70.2723 108.293 69.5773C108.105 68.8822 107.779 68.232 107.333 67.6653C106.888 67.0986 106.333 66.627 105.701 66.2787C105.069 65.9304 104.373 65.7124 103.654 65.6379C102.936 65.5633 102.21 65.6336 101.52 65.8446L86.345 69.9209L71.7622 61.5L86.345 53.0791L101.52 57.1555H102.919C104.346 57.3404 105.788 56.9526 106.929 56.0775C108.069 55.2024 108.814 53.9116 108.999 52.4891C109.185 51.0666 108.796 49.6288 107.918 48.4922C107.04 47.3556 105.745 46.6131 104.318 46.4282L99.5287 45.4091L110.291 39.2409C110.906 38.8887 111.445 38.4193 111.878 37.8594C112.31 37.2995 112.628 36.6602 112.813 35.9778C112.998 35.2955 113.046 34.5835 112.955 33.8826C112.864 33.1817 112.635 32.5055 112.282 31.8927C111.929 31.2799 111.458 30.7425 110.896 30.3111C110.334 29.8798 109.693 29.5629 109.008 29.3786C108.324 29.1943 107.609 29.1462 106.906 29.2371C106.203 29.328 105.525 29.556 104.91 29.9082L93.2866 36.6664L94.9009 30.7127C95.1126 30.0245 95.1832 29.3008 95.1083 28.5849C95.0335 27.8689 94.8148 27.1753 94.4654 26.5453C94.1159 25.9154 93.6428 25.362 93.0743 24.9181C92.5058 24.4742 91.8534 24.149 91.1561 23.9617C90.4588 23.7744 89.7308 23.729 89.0155 23.8281C88.3001 23.9272 87.6122 24.1688 86.9925 24.5385C86.3728 24.9082 85.8342 25.3984 85.4086 25.98C84.983 26.5616 84.6793 27.2226 84.5154 27.9236L80.1029 44.0145L66.3811 52.2209V35.4327L77.52 24.33C78.5222 23.3251 79.0848 21.9656 79.0848 20.5486C79.0848 19.1316 78.5222 17.7722 77.52 16.7673C77.0197 16.2645 76.4246 15.8655 75.7688 15.5932C75.1131 15.3209 74.4098 15.1807 73.6994 15.1807C72.989 15.1807 72.2857 15.3209 71.63 15.5932C70.9742 15.8655 70.3791 16.2645 69.8788 16.7673L66.3811 20.2536V7.86364C66.3811 6.44111 65.8142 5.07685 64.805 4.07097C63.7959 3.0651 62.4272 2.5 61 2.5C59.5728 2.5 58.2041 3.0651 57.195 4.07097C56.1858 5.07685 55.6189 6.44111 55.6189 7.86364V21.1118L51.2602 16.7673C50.76 16.2645 50.1648 15.8655 49.5091 15.5932C48.8533 15.3209 48.15 15.1807 47.4396 15.1807C46.7292 15.1807 46.0259 15.3209 45.3702 15.5932C44.7144 15.8655 44.1193 16.2645 43.619 16.7673C42.6168 17.7722 42.0542 19.1316 42.0542 20.5486C42.0542 21.9656 42.6168 23.3251 43.619 24.33L55.6189 36.2909V52.3818L41.7895 44.2291L37.377 28.1382C37.2131 27.4371 36.9093 26.7761 36.4838 26.1945C36.0582 25.6129 35.5195 25.1227 34.8999 24.753C34.2802 24.3833 33.5922 24.1417 32.8769 24.0426C32.1616 23.9435 31.4336 23.989 30.7363 24.1763C30.039 24.3635 29.3866 24.6888 28.8181 25.1327C28.2495 25.5765 27.7764 26.1299 27.427 26.7599C27.0775 27.3898 26.8589 28.0835 26.7841 28.7994C26.7092 29.5154 26.7797 30.239 26.9914 30.9273L28.7134 36.6664L17.0902 30.0155C16.4754 29.6633 15.797 29.4352 15.0938 29.3444C14.3906 29.2535 13.6763 29.3016 12.9918 29.4859C12.3072 29.6702 11.6658 29.987 11.1041 30.4184C10.5424 30.8498 10.0714 31.3872 9.71808 32C9.36475 32.6128 9.13597 33.289 9.04481 33.9899C8.95365 34.6908 9.00188 35.4028 9.18677 36.0851C9.56015 37.4632 10.4675 38.6369 11.7091 39.3482L22.4713 45.4091L17.9512 46.8036C16.524 46.9886 15.229 47.731 14.351 48.8677C13.4731 50.0043 13.0841 51.442 13.2696 52.8645C13.4551 54.2871 14.2 55.5779 15.3403 56.453C16.4807 57.3281 17.9231 57.7158 19.3503 57.5309H20.7493L35.9241 53.4545L50.2378 61.5L35.655 69.9209L20.4803 65.8446C19.7683 65.581 19.0083 65.4707 18.2505 65.5209C17.4926 65.5711 16.754 65.7806 16.0832 66.1357C15.4124 66.4907 14.8247 66.9833 14.3585 67.5811C13.8924 68.1788 13.5585 68.8681 13.3788 69.6036C13.1991 70.3392 13.1777 71.1044 13.3159 71.8488C13.4541 72.5932 13.7488 73.3 14.1807 73.9227C14.6126 74.5455 15.1719 75.07 15.8217 75.4619C16.4716 75.8538 17.1973 76.1041 17.9512 76.1964L22.7403 77.4836L11.9781 83.6518C10.7365 84.3631 9.82921 85.5368 9.45582 86.9149C9.08243 88.293 9.27355 89.7624 9.98713 91C10.7007 92.2376 11.8783 93.142 13.2608 93.5141C14.6434 93.8863 16.1176 93.6958 17.3592 92.9846L28.7134 86.3336L27.099 92.2873C26.8857 92.9738 26.813 93.6962 26.8853 94.4113C26.9575 95.1264 27.1732 95.8198 27.5196 96.4502C27.8659 97.0806 28.3358 97.6352 28.9014 98.081C29.467 98.5268 30.1167 98.8548 30.812 99.0455C31.2769 99.0982 31.7462 99.0982 32.2111 99.0455C33.4259 99.0869 34.6191 98.7172 35.5962 97.9965C36.5733 97.2758 37.2769 96.2465 37.5922 95.0764L42.0047 78.9855L55.6189 70.7791V87.5673L44.48 98.67C43.4778 99.6749 42.9152 101.034 42.9152 102.451C42.9152 103.868 43.4778 105.228 44.48 106.233C44.9784 106.74 45.5727 107.143 46.2285 107.419C46.8843 107.695 47.5886 107.839 48.3006 107.842C49.0126 107.839 49.7168 107.695 50.3727 107.419C51.0285 107.143 51.6228 106.74 52.1212 106.233L55.6189 102.746V115.136C55.6189 116.559 56.1858 117.923 57.195 118.929C58.2041 119.935 59.5728 120.5 61 120.5C62.4272 120.5 63.7959 119.935 64.805 118.929C65.8142 117.923 66.3811 116.559 66.3811 115.136V101.888L70.7398 106.233C71.24 106.735 71.8352 107.134 72.4909 107.407C73.1467 107.679 73.85 107.819 74.5604 107.819C75.2708 107.819 75.9741 107.679 76.6298 107.407C77.2856 107.134 77.8807 106.735 78.381 106.233C79.3832 105.228 79.9457 103.868 79.9457 102.451C79.9457 101.034 79.3832 99.6749 78.381 98.67L66.3811 86.7091V70.6182L80.2105 78.61L84.623 94.7009C84.9384 95.8711 85.6419 96.9003 86.619 97.621C87.5961 98.3418 88.7893 98.7115 90.0041 98.67C90.469 98.7227 90.9384 98.7227 91.4032 98.67C92.0903 98.4896 92.7347 98.1753 93.2993 97.7453C93.8638 97.3153 94.3374 96.7782 94.6926 96.1648C95.0478 95.5515 95.2776 94.8741 95.3688 94.1717C95.46 93.4694 95.4107 92.756 95.2238 92.0727L93.2866 86.3336L104.802 92.9846C105.417 93.3367 106.095 93.5648 106.799 93.6556C107.502 93.7465 108.216 93.6984 108.901 93.5141C109.585 93.3299 110.227 93.013 110.788 92.5816C111.35 92.1502 111.821 91.6128 112.174 91C112.528 90.3872 112.756 89.711 112.848 89.0101C112.939 88.3092 112.89 87.5972 112.706 86.9149C112.521 86.2326 112.203 85.5932 111.77 85.0333C111.337 84.4734 110.798 84.004 110.183 83.6518H110.291Z" fill="white"/>
</svg>
