<svg width="115" height="116" viewBox="0 0 115 116" fill="none" xmlns="http://www.w3.org/2000/svg">
<path d="M16.7316 43.5238C17.6771 43.5238 18.6013 43.2434 19.3874 42.7181C20.1736 42.1928 20.7863 41.4462 21.1481 40.5727C21.5099 39.6992 21.6046 38.738 21.4202 37.8107C21.2357 36.8834 20.7804 36.0316 20.1119 35.3631C19.4433 34.6945 18.5915 34.2392 17.6642 34.0548C16.7369 33.8703 15.7757 33.965 14.9022 34.3268C14.0287 34.6886 13.2821 35.3013 12.7568 36.0875C12.2315 36.8736 11.9512 37.7979 11.9512 38.7433C11.9512 40.0112 12.4548 41.2271 13.3513 42.1236C14.2478 43.0201 15.4637 43.5238 16.7316 43.5238ZM35.8533 43.5238H69.3162C73.1197 43.5238 76.7675 42.0128 79.457 39.3233C82.1465 36.6338 83.6574 32.986 83.6574 29.1825C83.6574 25.379 82.1465 21.7312 79.457 19.0417C76.7675 16.3522 73.1197 14.8412 69.3162 14.8412C66.8013 14.8517 64.3316 15.5102 62.1455 16.7534C61.5978 17.0657 61.1172 17.4833 60.7315 17.9821C60.3458 18.481 60.0626 19.0512 59.8982 19.6599C59.7338 20.2686 59.6914 20.9039 59.7736 21.5291C59.8557 22.1542 60.0607 22.757 60.3768 23.3026C60.6931 23.8464 61.1136 24.3224 61.6142 24.7033C62.1148 25.0843 62.6857 25.3627 63.2941 25.5226C63.9026 25.6824 64.5366 25.7207 65.1598 25.635C65.783 25.5494 66.3832 25.3416 66.926 25.0235C67.6614 24.6278 68.4812 24.4147 69.3162 24.4021C70.584 24.4021 71.7999 24.9057 72.6964 25.8022C73.5929 26.6987 74.0966 27.9147 74.0966 29.1825C74.0966 30.4503 73.5929 31.6663 72.6964 32.5628C71.7999 33.4593 70.584 33.9629 69.3162 33.9629H35.8533C34.5854 33.9629 33.3695 34.4666 32.473 35.3631C31.5765 36.2596 31.0728 37.4755 31.0728 38.7433C31.0728 40.0112 31.5765 41.2271 32.473 42.1236C33.3695 43.0201 34.5854 43.5238 35.8533 43.5238ZM16.7316 62.6454H50.1945C51.4624 62.6454 52.6783 62.1418 53.5748 61.2453C54.4713 60.3488 54.9749 59.1328 54.9749 57.865C54.9749 56.5972 54.4713 55.3812 53.5748 54.4847C52.6783 53.5882 51.4624 53.0846 50.1945 53.0846H16.7316C15.4637 53.0846 14.2478 53.5882 13.3513 54.4847C12.4548 55.3812 11.9512 56.5972 11.9512 57.865C11.9512 59.1328 12.4548 60.3488 13.3513 61.2453C14.2478 62.1418 15.4637 62.6454 16.7316 62.6454ZM97.9987 43.5238C98.9442 43.5238 99.8684 43.2434 100.655 42.7181C101.441 42.1928 102.053 41.4462 102.415 40.5727C102.777 39.6992 102.872 38.738 102.687 37.8107C102.503 36.8834 102.048 36.0316 101.379 35.3631C100.71 34.6945 99.8586 34.2392 98.9313 34.0548C98.004 33.8703 97.0428 33.965 96.1693 34.3268C95.2958 34.6886 94.5492 35.3013 94.0239 36.0875C93.4986 36.8736 93.2183 37.7979 93.2183 38.7433C93.2183 40.0112 93.7219 41.2271 94.6184 42.1236C95.5149 43.0201 96.7308 43.5238 97.9987 43.5238ZM88.4378 53.0846H69.3162C68.0483 53.0846 66.8324 53.5882 65.9359 54.4847C65.0394 55.3812 64.5358 56.5972 64.5358 57.865C64.5358 59.1328 65.0394 60.3488 65.9359 61.2453C66.8324 62.1418 68.0483 62.6454 69.3162 62.6454H88.4378C89.7057 62.6454 90.9216 63.1491 91.8181 64.0456C92.7146 64.9421 93.2183 66.158 93.2183 67.4258C93.2183 68.6937 92.7146 69.9096 91.8181 70.8061C90.9216 71.7026 89.7057 72.2063 88.4378 72.2063C87.17 72.2063 85.9541 72.7099 85.0576 73.6064C84.1611 74.5029 83.6574 75.7188 83.6574 76.9867C83.6574 78.2545 84.1611 79.4704 85.0576 80.3669C85.9541 81.2634 87.17 81.7671 88.4378 81.7671C92.2414 81.7671 95.8891 80.2561 98.5786 77.5666C101.268 74.8771 102.779 71.2294 102.779 67.4258C102.779 63.6223 101.268 59.9745 98.5786 57.285C95.8891 54.5955 92.2414 53.0846 88.4378 53.0846ZM59.7553 72.2063H40.6337C39.3658 72.2063 38.1499 72.7099 37.2534 73.6064C36.3569 74.5029 35.8533 75.7188 35.8533 76.9867C35.8533 78.2545 36.3569 79.4704 37.2534 80.3669C38.1499 81.2634 39.3658 81.7671 40.6337 81.7671H59.7553C61.0232 81.7671 62.2391 82.2707 63.1356 83.1672C64.0321 84.0637 64.5358 85.2797 64.5358 86.5475C64.5358 87.8153 64.0321 89.0313 63.1356 89.9278C62.2391 90.8243 61.0232 91.3279 59.7553 91.3279C58.9203 91.3153 58.1006 91.1022 57.3651 90.7065C56.821 90.3606 56.2126 90.1283 55.5764 90.0237C54.9402 89.9191 54.2895 89.9442 53.6632 90.0976C53.037 90.251 52.4483 90.5294 51.9325 90.9163C51.4167 91.3031 50.9845 91.7902 50.6618 92.3484C50.3392 92.9066 50.1328 93.5243 50.055 94.1643C49.9773 94.8043 50.0298 95.4535 50.2094 96.0727C50.3891 96.6919 50.6921 97.2683 51.1003 97.7674C51.5085 98.2664 52.0134 98.6777 52.5847 98.9766C54.7708 100.22 57.2405 100.878 59.7553 100.889C63.5589 100.889 67.2066 99.3778 69.8961 96.6883C72.5856 93.9988 74.0966 90.351 74.0966 86.5475C74.0966 82.744 72.5856 79.0962 69.8961 76.4067C67.2066 73.7172 63.5589 72.2063 59.7553 72.2063ZM21.512 72.2063H16.7316C15.4637 72.2063 14.2478 72.7099 13.3513 73.6064C12.4548 74.5029 11.9512 75.7188 11.9512 76.9867C11.9512 78.2545 12.4548 79.4704 13.3513 80.3669C14.2478 81.2634 15.4637 81.7671 16.7316 81.7671H21.512C22.7799 81.7671 23.9958 81.2634 24.8923 80.3669C25.7888 79.4704 26.2924 78.2545 26.2924 76.9867C26.2924 75.7188 25.7888 74.5029 24.8923 73.6064C23.9958 72.7099 22.7799 72.2063 21.512 72.2063Z" fill="white"/>
</svg>
