<svg width="115" height="116" viewBox="0 0 115 116" fill="none" xmlns="http://www.w3.org/2000/svg">
<path d="M52.5844 22.0119C53.2123 22.0123 53.8341 21.8889 54.4142 21.6487C54.9944 21.4086 55.5215 21.0565 55.9655 20.6126C56.4095 20.1686 56.7616 19.6414 57.0017 19.0613C57.2418 18.4811 57.3652 17.8594 57.3649 17.2315V12.4511C57.3649 11.1832 56.8612 9.96731 55.9647 9.07081C55.0682 8.1743 53.8523 7.67065 52.5844 7.67065C51.3166 7.67065 50.1007 8.1743 49.2042 9.07081C48.3077 9.96731 47.804 11.1832 47.804 12.4511V17.2315C47.8037 17.8594 47.9271 18.4811 48.1672 19.0613C48.4073 19.6414 48.7594 20.1686 49.2034 20.6126C49.6474 21.0565 50.1745 21.4086 50.7546 21.6487C51.3348 21.8889 51.9566 22.0123 52.5844 22.0119ZM19.1215 55.4748C19.1219 54.847 18.9985 54.2252 18.7584 53.645C18.5183 53.0649 18.1661 52.5377 17.7222 52.0938C17.2782 51.6498 16.7511 51.2977 16.1709 51.0576C15.5908 50.8175 14.969 50.694 14.3411 50.6944H9.56069C8.29284 50.6944 7.07693 51.1981 6.18042 52.0946C5.28392 52.9911 4.78027 54.207 4.78027 55.4748C4.78027 56.7427 5.28392 57.9586 6.18042 58.8551C7.07693 59.7516 8.29284 60.2552 9.56069 60.2552H14.3411C14.969 60.2556 15.5908 60.1322 16.1709 59.8921C16.7511 59.652 17.2782 59.2999 17.7222 58.8559C18.1661 58.4119 18.5183 57.8848 18.7584 57.3046C18.9985 56.7245 19.1219 56.1027 19.1215 55.4748ZM22.1606 79.1388L18.7809 82.5186C17.8845 83.415 17.3809 84.6308 17.3809 85.8985C17.3809 87.1662 17.8845 88.382 18.7809 89.2784C19.6773 90.1748 20.8931 90.6784 22.1608 90.6784C23.4285 90.6784 24.6443 90.1748 25.5407 89.2784L28.9204 85.8986C29.8168 85.0022 30.3204 83.7865 30.3204 82.5187C30.3204 81.251 29.8168 80.0352 28.9204 79.1388C28.024 78.2424 26.8082 77.7388 25.5405 77.7388C24.2728 77.7388 23.057 78.2424 22.1606 79.1388ZM22.1606 31.8108C22.6045 32.2547 23.1314 32.6067 23.7113 32.847C24.2913 33.0872 24.9128 33.2108 25.5405 33.2108C26.1682 33.2108 26.7898 33.0872 27.3697 32.847C27.9496 32.6067 28.4766 32.2547 28.9204 31.8108C29.3643 31.3669 29.7164 30.84 29.9566 30.2601C30.1968 29.6802 30.3204 29.0586 30.3204 28.4309C30.3204 27.8032 30.1968 27.1816 29.9566 26.6017C29.7164 26.0218 29.3643 25.4949 28.9204 25.051L25.5407 21.6713C24.6443 20.7748 23.4285 20.2712 22.1608 20.2712C20.8931 20.2712 19.6773 20.7747 18.7809 21.6711C17.8844 22.5675 17.3808 23.7833 17.3808 25.051C17.3808 26.3187 17.8843 27.5345 18.7807 28.4309L22.1606 31.8108ZM79.6284 33.2115C80.2562 33.2122 80.878 33.0888 81.458 32.8484C82.038 32.6081 82.5648 32.2554 83.0081 31.8108L86.3879 28.431C87.2843 27.5346 87.7879 26.3189 87.7879 25.0511C87.7879 23.7834 87.2843 22.5677 86.3879 21.6713C85.4915 20.7748 84.2757 20.2713 83.008 20.2713C81.7403 20.2713 80.5245 20.7748 79.6281 21.6713L76.2483 25.051C75.58 25.7196 75.1248 26.5713 74.9405 27.4984C74.7561 28.4256 74.8508 29.3866 75.2125 30.26C75.5742 31.1334 76.1868 31.8799 76.9727 32.4052C77.7587 32.9305 78.6827 33.211 79.6281 33.2112L79.6284 33.2115ZM62.1453 57.865C62.1449 58.4929 62.2683 59.1147 62.5084 59.6948C62.7485 60.275 63.1007 60.8021 63.5446 61.2461C63.9886 61.6901 64.5157 62.0422 65.0959 62.2823C65.676 62.5224 66.2978 62.6458 66.9257 62.6455H90.8278C94.63 62.6413 98.2754 61.129 100.964 58.4404C103.653 55.7518 105.165 52.1065 105.169 48.3042C105.169 47.0364 104.665 45.8204 103.769 44.9239C102.872 44.0274 101.656 43.5238 100.389 43.5238C99.1208 43.5238 97.9048 44.0274 97.0083 44.9239C96.1118 45.8204 95.6082 47.0364 95.6082 48.3042C95.5915 49.5669 95.0825 50.7731 94.1896 51.666C93.2967 52.5589 92.0904 53.0679 90.8278 53.0846H66.9257C66.2978 53.0843 65.676 53.2077 65.0959 53.4478C64.5157 53.6879 63.9886 54.04 63.5446 54.484C63.1007 54.9279 62.7485 55.4551 62.5084 56.0352C62.2683 56.6154 62.1449 57.2372 62.1453 57.865ZM95.6082 72.2063H71.7061C70.4383 72.2063 69.2223 72.7099 68.3258 73.6064C67.4293 74.5029 66.9257 75.7189 66.9257 76.9867C66.9257 78.2545 67.4293 79.4705 68.3258 80.367C69.2223 81.2635 70.4383 81.7671 71.7061 81.7671H95.6082C96.876 81.7671 98.092 82.2708 98.9885 83.1673C99.885 84.0638 100.389 85.2797 100.389 86.5475C100.389 87.8154 99.885 89.0313 98.9885 89.9278C98.092 90.8243 96.876 91.3279 95.6082 91.3279C94.3403 91.3279 93.1244 91.8316 92.2279 92.7281C91.3314 93.6246 90.8278 94.8405 90.8278 96.1084C90.8278 97.3762 91.3314 98.5921 92.2279 99.4886C93.1244 100.385 94.3403 100.889 95.6082 100.889C99.4117 100.889 103.059 99.3778 105.749 96.6883C108.438 93.9988 109.949 90.3511 109.949 86.5475C109.949 82.744 108.438 79.0962 105.749 76.4067C103.059 73.7172 99.4117 72.2063 95.6082 72.2063ZM43.0236 91.3279C42.0781 91.3279 41.1539 91.6083 40.3677 92.1336C39.5816 92.6589 38.9689 93.4055 38.6071 94.279C38.2453 95.1525 38.1506 96.1137 38.335 97.041C38.5195 97.9683 38.9748 98.8201 39.6433 99.4886C40.3119 100.157 41.1637 100.612 42.091 100.797C43.0183 100.981 43.9795 100.887 44.853 100.525C45.7265 100.163 46.4731 99.5504 46.9984 98.7642C47.5237 97.9781 47.804 97.0538 47.804 96.1084C47.804 94.8405 47.3004 93.6246 46.4039 92.7281C45.5074 91.8316 44.2915 91.3279 43.0236 91.3279ZM71.7061 91.3279H62.1453C60.8774 91.3279 59.6615 91.8316 58.765 92.7281C57.8685 93.6246 57.3649 94.8405 57.3649 96.1084C57.3649 97.3762 57.8685 98.5921 58.765 99.4886C59.6615 100.385 60.8774 100.889 62.1453 100.889H71.7061C72.9688 100.905 74.175 101.414 75.0679 102.307C75.9608 103.2 76.4698 104.407 76.4865 105.669C76.4865 106.937 76.9902 108.153 77.8867 109.049C78.7832 109.946 79.9991 110.45 81.2669 110.45C82.5348 110.45 83.7507 109.946 84.6472 109.049C85.5437 108.153 86.0474 106.937 86.0474 105.669C86.0432 101.867 84.5309 98.2216 81.8423 95.533C79.1537 92.8444 75.5084 91.3321 71.7061 91.3279ZM52.5844 72.2063C48.147 72.2063 43.8913 70.4435 40.7535 67.3058C37.6158 64.168 35.853 59.9123 35.853 55.4748C35.853 51.0374 37.6158 46.7817 40.7535 43.6439C43.8913 40.5061 48.147 38.7434 52.5844 38.7434C56.3954 38.7191 60.0948 40.0287 63.0416 42.4454C63.5277 42.8432 64.0874 43.1414 64.6888 43.3228C65.2902 43.5043 65.9214 43.5654 66.5464 43.5028C67.1714 43.4402 67.778 43.255 68.3314 42.9578C68.8848 42.6606 69.3742 42.2573 69.7717 41.7709C70.1692 41.2845 70.4669 40.7245 70.6479 40.123C70.8288 39.5215 70.8894 38.8902 70.8263 38.2652C70.7631 37.6403 70.5775 37.0339 70.2798 36.4807C69.9822 35.9275 69.5785 35.4384 69.0918 35.0414C64.4417 31.2219 58.602 29.1492 52.5844 29.1825C45.6113 29.1825 38.9237 31.9526 33.993 36.8834C29.0622 41.8141 26.2921 48.5017 26.2921 55.4748C26.2921 62.448 29.0622 69.1355 33.993 74.0663C38.9237 78.997 45.6113 81.7671 52.5844 81.7671C53.8523 81.7671 55.0682 81.2635 55.9647 80.367C56.8612 79.4705 57.3649 78.2545 57.3649 76.9867C57.3649 75.7189 56.8612 74.5029 55.9647 73.6064C55.0682 72.7099 53.8523 72.2063 52.5844 72.2063Z" fill="white"/>
</svg>
