<svg width="110" height="111" viewBox="0 0 110 111" fill="none" xmlns="http://www.w3.org/2000/svg">
<path d="M54.9996 87.5834H32.0829C30.8674 87.5834 29.7016 88.0663 28.842 88.9258C27.9825 89.7854 27.4996 90.9512 27.4996 92.1667C27.4996 93.3823 27.9825 94.5481 28.842 95.4076C29.7016 96.2672 30.8674 96.7501 32.0829 96.7501H54.9996C56.2102 96.7661 57.3667 97.2541 58.2228 98.1102C59.0789 98.9663 59.5669 100.123 59.5829 101.333C59.5829 102.549 60.0658 103.715 60.9254 104.574C61.7849 105.434 62.9507 105.917 64.1663 105.917C65.3818 105.917 66.5476 105.434 67.4072 104.574C68.2667 103.715 68.7496 102.549 68.7496 101.333C68.7456 97.6879 67.2957 94.1928 64.7179 91.6151C62.1402 89.0373 58.6451 87.5874 54.9996 87.5834ZM64.1663 41.7501C65.0728 41.7501 65.9589 41.4813 66.7126 40.9776C67.4664 40.474 68.0538 39.7582 68.4007 38.9207C68.7476 38.0832 68.8384 37.1616 68.6615 36.2726C68.4847 35.3835 68.0482 34.5668 67.4072 33.9258C66.7662 33.2848 65.9495 32.8483 65.0604 32.6715C64.1713 32.4946 63.2498 32.5854 62.4123 32.9323C61.5748 33.2792 60.859 33.8666 60.3554 34.6204C59.8517 35.3741 59.5829 36.2602 59.5829 37.1667C59.5829 38.3823 60.0658 39.5481 60.9254 40.4076C61.7849 41.2672 62.9507 41.7501 64.1663 41.7501ZM82.4996 41.7501H91.6663C95.3118 41.7461 98.8068 40.2962 101.385 37.7184C103.962 35.1406 105.412 31.6456 105.416 28.0001C105.416 26.7845 104.933 25.6187 104.074 24.7592C103.214 23.8996 102.049 23.4167 100.833 23.4167C99.6174 23.4167 98.4516 23.8996 97.592 24.7592C96.7325 25.6187 96.2496 26.7845 96.2496 28.0001C96.2336 29.2107 95.7456 30.3672 94.8895 31.2233C94.0334 32.0794 92.8769 32.5674 91.6663 32.5834H82.4996C81.284 32.5834 80.1182 33.0663 79.2587 33.9258C78.3991 34.7854 77.9163 35.9512 77.9163 37.1667C77.9163 38.3823 78.3991 39.5481 79.2587 40.4076C80.1182 41.2672 81.284 41.7501 82.4996 41.7501ZM91.6663 69.2501H81.7602C84.3904 65.1354 86.1769 60.5392 87.0158 55.7283C87.1501 54.9459 87.079 54.142 86.8094 53.3954C86.5398 52.6487 86.0809 51.9848 85.4777 51.4687C84.8745 50.9526 84.1477 50.6019 83.3683 50.451C82.5889 50.3002 81.7837 50.3542 81.0315 50.6079C78.1976 51.5709 75.2249 52.0623 72.2319 52.0626C64.8746 52.0599 57.8187 49.1391 52.6122 43.9409C47.4056 38.7427 44.4734 31.6916 44.4588 24.3343C44.4897 22.7231 44.6393 21.1164 44.9064 19.5272C45.0261 18.7498 44.9435 17.9547 44.6667 17.2185C44.3899 16.4824 43.9281 15.8299 43.3259 15.3239C42.7238 14.818 42.0014 14.4756 41.2285 14.3299C40.4556 14.1841 39.6582 14.2399 38.9131 14.4917C33.6 16.2642 28.7613 19.2256 24.7656 23.1505C20.7699 27.0755 17.7224 31.8604 15.8553 37.141C13.9881 42.4216 13.3506 48.0586 13.9911 53.6229C14.6316 59.1871 16.5333 64.5318 19.5515 69.2501H13.7496C12.534 69.2501 11.3682 69.7329 10.5087 70.5925C9.64914 71.452 9.16626 72.6178 9.16626 73.8334C9.16626 75.049 9.64914 76.2148 10.5087 77.0743C11.3682 77.9338 12.534 78.4167 13.7496 78.4167H36.6663C37.8818 78.4167 39.0476 77.9338 39.9072 77.0743C40.7667 76.2148 41.2496 75.049 41.2496 73.8334C41.2496 72.6178 40.7667 71.452 39.9072 70.5925C39.0476 69.7329 37.8818 69.2501 36.6663 69.2501H31.3061C28.3378 66.3702 26.0539 62.8607 24.6228 58.9804C23.1918 55.1001 22.6502 50.948 23.0379 46.8305C23.4256 42.713 24.7328 38.735 26.863 35.19C28.9932 31.6451 31.8921 28.6236 35.3458 26.3485C35.8785 35.7727 39.9961 44.6363 46.8545 51.1218C53.7129 57.6074 62.7926 61.2237 72.2319 61.2292C73.4396 61.2301 74.6466 61.1703 75.8484 61.0502C74.424 64.1171 72.4486 66.8965 70.0205 69.2501H54.9996C53.784 69.2501 52.6182 69.7329 51.7587 70.5925C50.8991 71.452 50.4163 72.6178 50.4163 73.8334C50.4163 75.049 50.8991 76.2148 51.7587 77.0743C52.6182 77.9338 53.784 78.4167 54.9996 78.4167H91.6663C92.8818 78.4167 94.0476 78.8996 94.9072 79.7591C95.7667 80.6187 96.2496 81.7845 96.2496 83.0001C96.2496 84.2156 95.7667 85.3814 94.9072 86.241C94.0476 87.1005 92.8818 87.5834 91.6663 87.5834C90.4507 87.5834 89.2849 88.0663 88.4254 88.9258C87.5658 89.7854 87.0829 90.9512 87.0829 92.1667C87.0829 93.3823 87.5658 94.5481 88.4254 95.4076C89.2849 96.2672 90.4507 96.7501 91.6663 96.7501C95.313 96.7501 98.8104 95.3014 101.389 92.7228C103.968 90.1442 105.416 86.6468 105.416 83.0001C105.416 79.3533 103.968 75.856 101.389 73.2773C98.8104 70.6987 95.313 69.2501 91.6663 69.2501ZM12.0085 87.9504C11.4528 88.1823 10.9411 88.5078 10.4956 88.9129C9.64929 89.7854 9.17298 90.9512 9.16626 92.1667C9.15843 92.9215 9.33905 93.6663 9.69176 94.3336C10.0445 95.0009 10.5581 95.5697 11.1861 95.9884C11.8142 96.4071 12.5367 96.6625 13.2884 96.7314C14.0401 96.8003 14.797 96.6805 15.4907 96.383C16.0459 96.1503 16.5575 95.8249 17.0038 95.4209C17.4299 94.9936 17.7668 94.4859 17.995 93.9272C18.2232 93.3686 18.3381 92.7702 18.3329 92.1667C18.315 90.9534 17.8404 89.7915 17.0038 88.9126C16.3587 88.2776 15.5404 87.8475 14.6516 87.6763C13.7628 87.5051 12.8432 87.6005 12.0085 87.9504Z" fill="white"/>
</svg>
